<svg width="69" height="85" viewBox="0 0 69 85" fill="none" xmlns="http://www.w3.org/2000/svg">
<path d="M67.5539 66.2408C66.3151 69.2105 64.8487 71.944 63.1498 74.4573C60.8339 77.8833 58.9377 80.2548 57.4764 81.5719C55.2112 83.7335 52.784 84.8406 50.1851 84.9035C48.3193 84.9035 46.0691 84.3526 43.4499 83.235C40.8221 82.1227 38.4071 81.5718 36.199 81.5718C33.8831 81.5718 31.3993 82.1227 28.7428 83.235C26.0821 84.3526 23.9387 84.935 22.2998 84.9927C19.8076 85.1029 17.3233 83.9643 14.8437 81.5718C13.261 80.1394 11.2814 77.6839 8.9099 74.2054C6.36553 70.4906 4.27372 66.1831 2.6349 61.2721C0.879819 55.9677 0 50.8311 0 45.8583C0 40.1619 1.18625 35.2488 3.56226 31.1317C5.42961 27.8247 7.91382 25.216 11.023 23.3009C14.1322 21.3859 17.4917 20.4099 21.1096 20.3476C23.0892 20.3476 25.6851 20.9829 28.9111 22.2316C32.1281 23.4846 34.1936 24.1199 35.0992 24.1199C35.7762 24.1199 38.0709 23.377 41.9608 21.8958C45.6394 20.5223 48.7439 19.9534 51.2874 20.1775C58.1793 20.7547 63.357 23.5737 66.8005 28.6526C60.6367 32.5279 57.5876 37.9556 57.6483 44.9186C57.7039 50.3421 59.6001 54.8554 63.3267 58.439C65.0155 60.1022 66.9016 61.3876 69 62.3006C68.5449 63.6699 68.0646 64.9817 67.5539 66.2408V66.2408ZM51.7475 1.7005C51.7475 5.95144 50.2508 9.92058 47.2675 13.5944C43.6673 17.9618 39.3128 20.4855 34.5905 20.0872C34.5273 19.5528 34.4955 19.0149 34.4954 18.4764C34.4954 14.3955 36.2075 10.0281 39.248 6.45721C40.766 4.64916 42.6965 3.14584 45.0376 1.94658C47.3737 0.765231 49.5833 0.111906 51.6615 0C51.7223 0.568267 51.7475 1.13661 51.7475 1.70043V1.7005Z" fill="white"/>
</svg>
